<svg width="1278" height="224" viewBox="0 0 1278 224" fill="none" xmlns="http://www.w3.org/2000/svg">
<g clip-path="url(#clip0_791_272)">
<path d="M122.773 8.41854C39.8749 -16.3764 0 21.4944 0 21.4944V99C0 99 23.0392 81.6793 157.604 114.119C247.923 135.891 302.232 166.456 385.783 192.054C495.826 225.769 585.758 230.742 670.542 216.539C755.327 202.336 1062.88 146.19 1148.52 157.066C1234.16 167.942 1278 194.314 1278 194.314V168.224C1278 168.224 1231.01 142.688 1134.11 126.123C1037.19 109.557 904.054 136.51 783.98 148.166C663.906 159.823 485.301 155.998 355.748 105.339C226.195 54.68 238.194 42.9416 122.773 8.41854Z" fill="url(#paint0_linear_791_272)"/>
</g>
<defs>
<linearGradient id="paint0_linear_791_272" x1="44.4503" y1="58.1436" x2="1346.42" y2="187.036" gradientUnits="userSpaceOnUse">
<stop stop-color="#D7EBEE" stop-opacity="0.5"/>
<stop offset="1" stop-color="#0A9396"/>
</linearGradient>
<clipPath id="clip0_791_272">
<rect width="1278" height="224" fill="white"/>
</clipPath>
</defs>
</svg>
