<svg width="1414" height="635" viewBox="0 0 1414 635" fill="none" xmlns="http://www.w3.org/2000/svg">
<path d="M164.129 180.612C76.8057 155.856 38.2814 193.41 38.2814 193.41L34.802 271.846C34.802 271.846 59.0712 253.758 200.82 286.146C295.961 307.884 353.169 338.401 441.181 363.959C557.099 397.621 651.832 402.587 741.142 388.406C830.453 374.225 1154.42 318.167 1244.64 329.026C1334.85 339.885 1381.03 366.216 1381.03 366.216L1377.97 339.653C1377.97 339.653 1331.53 314.671 1229.45 298.132C1127.36 281.592 987.121 308.502 860.636 320.14C734.152 331.779 546.011 327.96 409.542 277.38C273.073 226.801 285.713 215.081 164.129 180.612Z" fill="url(#paint0_linear_525_272)"/>
<defs>
<linearGradient id="paint0_linear_525_272" x1="81.6254" y1="230.259" x2="1451.6" y2="373.349" gradientUnits="userSpaceOnUse">
<stop stop-color="#D7EBEE" stop-opacity="0.5"/>
<stop offset="1" stop-color="#0A9396"/>
</linearGradient>
</defs>
</svg>
